<svg class="svg-icon" style="width: 1em; height: 1em;vertical-align: middle;fill: currentColor;overflow: hidden;" viewBox="0 0 1024 1024" version="1.1" xmlns="http://www.w3.org/2000/svg"><path d="M512 832a21.333333 21.333333 0 0 1-21.333333-21.333333V213.333333a21.333333 21.333333 0 0 1 42.666666 0v597.333334a21.333333 21.333333 0 0 1-21.333333 21.333333z" fill="#333333" /><path d="M512 832a21.333333 21.333333 0 0 1-15.146667-6.186667l-277.333333-277.333333a21.333333 21.333333 0 0 1 30.293333-30.293333L512 780.586667l262.186667-262.4a21.333333 21.333333 0 0 1 30.293333 30.293333l-277.333333 277.333333A21.333333 21.333333 0 0 1 512 832z" fill="#333333" /></svg>