<?xml version="1.0" encoding="UTF-8"?>
<svg id="Layer_1" data-name="Layer 1" xmlns="http://www.w3.org/2000/svg" viewBox="0 0 1308.13 325.18">
  <defs>
    <style>
      .cls-1 {
        stroke-width: 0px;
      }
    </style>
  </defs>
  <path class="cls-1" d="m1169.92,186.32c-13.6,1.73-13.85,2.01-17.08,13.58-4.41,15.8-8.98,31.55-13.42,47.34-.99,3.52-2.91,7.29-2.39,10.64,1.47,9.4-3.67,11.8-11.36,12.88-4.79.67-9.47,2.16-14.46,3.35v-75c-.66.88-2.46,2.89-3.81,5.17-10.3,17.33-25.36,30.44-41.09,42.14-7.67,5.71-18.94,7.3-28.88,9.12-14.21,2.61-26.33-1.78-35.63-13.61-4.02-5.11-9.56-9.03-14.62-13.69-8.12,4.61-16.34,8.99-24.21,13.93-1.81,1.14-3.69,4.38-3.38,6.31,3,18.69-4.23,33.84-15.71,47.71-1.24,1.5-2.42,3.15-3.2,4.92-6.55,14.85-17.06,21.91-34.14,20.83-8.1-.51-13.6-4.58-20.26-7.26-10.09-4.06-14.06-10.85-12.22-21.51.82-4.76.23-9.79,1.26-14.47,1.88-8.51,7.25-14.22,14.85-18.93,11.23-6.95,21.45-15.5,32.41-22.92,7.56-5.11,11.1-11.38,8.08-21.37-3.97,2.37-8.37,4.33-11.96,7.27-8.12,6.65-17.15,8.84-27.43,7.57-5.59-.69-11.28-.78-16.91-.67-1.89.04-4.36,1.01-5.52,2.42-8.76,10.69-21.65,12.85-33.79,16.43-1.92.57-4.44-.75-6.63-1.37-.63-.18-1.09-.96-1.64-1.45-11.55-10.21-25.38-19.34-17.51-39.16-7.32,6.71-15.92,9.77-19.93,19.86-2.68,6.74-11.19,12.84-18.48,15.78-22.83,9.19-22.94,8.39-41-8.24-4.64-4.28-6.77-8.52-5.64-14.72.69-3.81.55-7.78,0-12.24-6.56,6.36-15.63,9.38-18.95,19.64-3.29,10.17-8.85,19.63-13.72,29.24-.81,1.59-3.11,2.53-4.88,3.49-.78.42-1.93.19-2.91.21-8.09.2-17.96,3.3-23.76-.23-5.76-3.51-7.46-13.68-10.86-20.96-1.97-4.22-4.15-8.38-5.6-12.78-1.91-5.82-5.43-7.6-11.11-5.74-.25.4-.75.86-.69,1.21,1.83,10.86-4.31,14.99-13.28,19.73-12.75,6.73-22.85,7.2-33.07-3.49-3.12-3.26-7.45-5.37-11.83-8.43-5.08,18.97-23.14,22.73-35.79,32.52-1.55,1.2-4.76.63-7.14.34-10.48-1.29-20.94-2.72-31.39-4.2-4.96-.7-14.74-13.18-14.81-19.27-.16-14.22-.24-28.45.13-42.66.06-2.5,1.89-5.52,3.82-7.32,10.6-9.87,21.4-19.55,32.38-28.99,2.01-1.73,5.14-2.73,7.85-2.97,8.04-.72,16.13-.9,25.1-1.33,0-14.3.85-28.25-.24-42.05-1.11-14.09,2.21-25.88,12.09-36,2.55-2.61,4.44-5.87,6.62-8.83,7.77-10.53,12.07-12.02,24.66-7.76,1.86.63,3.49,2.97,4.49,4.9,6.66,12.83,8.24,26.84,10.43,40.94,2.65,17.05-2.78,31.81-8.9,46.8-3.98,9.75-8.19,19.42-11.68,29.34-.81,2.3.03,6.15,1.59,8.11,2.84,3.57,6.48,6.75,10.34,9.23,11.76,7.57,25.72-2.02,28.52-12.6,3.75-14.17,8.82-27.99,13.6-42.85,7.8,1.46,15.48,2.61,22.96,4.52,1.41.36,2.74,3.64,2.95,5.69,1.24,12.42,1.92,24.91,3.25,37.32.59,5.51,2.34,10.89,3.49,16.34,1.48,7.06,2.89,14.14,4.52,22.13,20.44-25.09,35.25-52.86,47.32-84.44-8.94.75-15.81,1.33-23.94,2.02,1.39-8.56,2.49-16.42,4.11-24.17.26-1.25,2.71-2.52,4.36-2.93,5.68-1.43,11.46-2.49,17.78-3.82v-30.14c8.81-1.47,17.13-2.86,26.38-4.4.54,10.42,1.05,20.25,1.57,30.22,1.74.21,2.68.44,3.62.42q13.37-.32,16.26,12.55c.58,2.59,1.18,5.17,1.91,8.37-2.63.32-4.73.8-6.83.79-18.31-.11-20.28,6.52-21.8,22.65-1.33,14.1-1.18,28.5.16,42.6.54,5.62,6.03,10.77,9.3,16.19,10.62-4.9,14.35-16.97,26.37-16.6,6.57-17.98,19.78-33.12,23.56-53.64-7.67.64-14.56,1.21-22.66,1.89,1.35-8.61,2.35-16.49,4.02-24.23.29-1.33,3.26-2.54,5.18-2.99,17.28-4.01,17.3-3.96,17.3-21.38v-12.52c8.63-1.42,16.97-2.78,26.13-4.29.51,10.48.99,20.33,1.44,29.6,1.2.62,1.42.83,1.64.83,5.05.06,13.16-1.77,14.56.51,3.51,5.68,3.97,13.23,5.86,20.86-4.08.27-7.18.5-10.28.67-14.94.8-16.94,6.15-18.49,21.29-1.51,14.8-1.21,29.96.11,44.8.48,5.31,6.28,10.15,9.52,15,10.54-4.69,13.94-17.22,25.08-16.3,12.05-37.08,35.67-65.23,64.43-91.18,8.01,10.22,15.76,20.1,22.72,28.97-16.15,11.41-31.83,22.23-47.2,33.48-6.69,4.9-5.52,22.34,1.48,24.85,2.29.82,5.69.35,7.92-.81,4.33-2.24,7.98-5.78,12.29-8.07,11.78-6.26,18.34-15.13,20.31-28.92,1.08-7.56,7.42-14.37,11.72-22.11,6.14,13.41,11.64,25.44,17.63,38.53-3.02,2.09-7.75,5.45-12.57,8.68-13.84,9.29-14.89,12.21-10.01,30.07,8.69-5.41,17.38-10.43,25.54-16.19,1.75-1.23,2.34-5.22,2.14-7.84-.51-7.01,1.16-13.05,5.93-18.23.5-.54.95-1.14,1.3-1.78,11.1-20.24,27.46-34.62,48.45-44.19,6.62-3.02,19.24-.68,23.4,5.36.55.8.88,1.75,1.32,2.62,10.88,21.68,10.03,21.19-2.05,42.36-6.87,12.04-16.95,18.63-28.5,24.06-5.35,2.51-6.91,5.82-6.69,11.41.41,10.45.12,20.93.12,33.12,4.34-3.33,8.89-5.36,11.24-8.86,10.14-15.12,23.48-25.96,40.07-33.35,3.08-1.38,5.87-5,7.28-8.24,5.76-13.25,11.24-26.64,16.19-40.21,2.04-5.59,5.21-9.02,10.68-10.99,3.88-1.4,7.55-3.38,11.82-5.33,3.56,11.83-2.26,25.09,7.34,35.86,6.87-10.89,13.5-21.4,20.69-32.79,10.78,8.91,21.2,17.37,31.36,26.13,1.43,1.24,1.78,3.9,2.3,5.99,3.51,14.21,6.92,28.44,10.74,44.22,7.23-5.63,13.58-10.57,20.56-16,2.22,15.52,1.26,28.73-9.12,40.62-12.21,13.98-23.26,28.96-35.3,44.13-5.62-5.27-12.23-8.96-14.71-14.49-2.55-5.7-1.72-13.25-1.16-19.89.51-6.03,2.35-12.01,4.14-17.86,4.65-15.21,4.79-30.7,4.22-46.41Zm-651.81,56.34c17.01-6.88,29.57-17.61,40.26-31.56,5.82-7.6,7.67-13.32,2.96-21.93-4.86-8.89-11.27-11.3-19.49-5.28-7.51,5.49-14.99,11.06-22.2,16.94-1.79,1.46-3.58,4.29-3.52,6.44.33,11.66,1.24,23.31,1.98,35.4Zm62.88-75.7c14.64-26.52,7.05-53.13,10.23-80.53-11.57,8.87-21.39,15.91-17.64,30.87,1.16,4.63-.07,9.81.71,14.59,1.82,11.14,4.2,22.18,6.7,35.07Zm352.96,88.78c-14.71,6.23-23.5,17.73-30.69,30.83-2.42,4.4.48,7.75,3.66,7.22,6.62-1.11,15.08-2.27,18.91-6.72,7.26-8.45,14.29-18.62,8.12-31.33Zm96.49-75.04c18.41-5.27,29.82-21.46,18.79-32.79-8.33,2.06-16.14,4-24.48,6.06,1.78,8.36,3.69,17.33,5.68,26.72Z"/>
  <path class="cls-1" d="m294.71,121.19c2.25,8.19,4.11,14.98,6.18,22.52-8.52.68-16.64.55-24.43,2.1-15.54,3.09-29.2,9.69-40.31,21.74-12.22,13.25-15.22,28.4-12.54,45.02,8.42,7.04,15.5,4.1,24.47-.58,15.2-7.94,21.29-18.14,19.27-35.37-1.74-14.87-.37-15.04,14.31-19.02,3.99-1.08,8.01-2.05,11.13-2.85,3.67,16.62,7.26,32.89,11.04,49.99,6.43-2.13,11.63-3.86,17.67-5.86,0,8.29,0,15.8,0,23.3,0,.24,0,.5-.06.73-1.43,5.11-19.48,13.52-26.87,12.53-5.86-.79-10.51-7.9-11.2-15.83-.44-5.01-1.97-9.92-3.4-16.7-1.8,2.66-2.26,3.02-2.29,3.42-1.82,21-18.3,32-31.26,45.35-1.05,1.08-3.77,1.84-5.02,1.26-15.36-7.12-30.59-14.5-45.83-21.88-.73-.35-1.18-1.28-2.37-2.63-6.28,8.38-13.31,15.84-18.02,24.53-5.6,10.34-14.11,10.34-25.04,10.15v-49c-.7-.08-1.4-.16-2.1-.24-10.61,13.6-20.91,27.33-19.5,47.31-8-1.34-14.75-2.17-21.31-3.79-1.47-.36-3.24-3.51-3.2-5.33.28-11.47,1.03-22.94,1.65-34.4.09-1.68.33-3.35.53-5.31-8.31,2.2-14.83,5.65-16.66,14.67-.58,2.84-2.57,5.39-3.1,8.23-2.28,12.2-11.08,16.19-21.88,17.86-10.04-18.39-9.12-38.54-10.44-59.26-6.73,9.07-13.46,18.15-20.19,27.22-1.17-11.48-4.61-22.94.58-33.94,8.14-17.25,16.84-34.23,24.96-51.49,1.85-3.93,3.91-4.93,7.92-4.01,17.42,3.99,16.08-1,19.32,19.53,1.67,10.59,3.39,21.18,5.15,32.11,2.15-.74,3.71-1.51,5.36-1.81,7.35-1.36,8.1-5.19,6.45-12.08-1.82-7.63-1.45-15.78-2.18-25.74,12.07,6.71,22.42,12.15,32.33,18.28,1.5.92,1.64,5.1,1.33,7.65-1.07,8.8-2.61,17.54-4.21,27.83,20.52-3.63,18.8-17.98,19.74-31.93,5.91,2.78,11.24,5.05,16.29,7.83,1.3.72,2.19,2.98,2.43,4.66.41,2.89,0,5.88.2,8.81.62,9.6,4.76,12.96,14.05,11.56,1.46-.22,2.93-.76,4.36-.67,6,.41,7.94-2.61,7-8.02-1.34-7.77,2.06-13.27,7.38-18.69,11.52-11.73,22.42-24.07,33.68-36.05,1.61-1.71,3.66-3.69,5.79-4.11,17.31-3.35,34.7-6.36,52.83-9.61Z"/>
  <path class="cls-1" d="m382.9,204.04c8.49,3.37,16.67,6.89,25.08,9.72,1.65.56,4.55-1.08,6.25-2.47,5.67-4.62,11.07-9.57,16.74-14.55,5.82,16.15-.32,33.7-15.08,44.31-.6.43-1.19.88-1.85,1.2-5.68,2.77-11.54,8.09-17.04,7.75-13.79-.86-25.21-8.34-32.24-20.3-2.5-4.25-1.35-10.63-2.96-16.31-3.71,8.94-7.41,17.89-11.15,26.82-3.68,8.79-7.41,17.57-11.6,27.5-7.11-5.93-13.72-11.44-20.92-17.45,8.58-13.94,15.85-28.27,25.53-40.75,9.48-12.22,6.84-25.04,7.08-40.66-11.83,5.54-22.02,10.31-33.2,15.55-3.55-4.39-8.11-10.03-11.35-14.04,8.71-9.81,16.37-20.1,25.76-28.47,6.83-6.08,20.07-2.56,27.13,3.14,8.78,7.09,9.8,17.04,12.4,26.58.7,2.55,1.26,5.14,2.32,9.52,1-3.03,1.7-4.39,1.88-5.82,2.09-16.24,10.17-30,18.41-43.63,1.06-1.75,4.77-3.57,6.45-3,6.21,2.1,12.09,5.19,19.13,8.38-12.1,22.03-23.94,43.58-36.78,66.96Z"/>
  <path class="cls-1" d="m702.31,52.71c-5.04,15.57-9.4,29.57-14.29,43.38-.55,1.57-4.1,3.02-6.2,2.95-9.79-.37-19.56-1.29-30.31-2.09,2.97-12.54,5.74-24.56,8.78-36.52.32-1.26,2.12-2.87,3.41-3.04,12.35-1.66,24.73-3.04,38.61-4.67Z"/>
</svg>